<svg width="84" height="85" viewBox="0 0 84 85" fill="none" xmlns="http://www.w3.org/2000/svg">
<circle cx="42" cy="42.3723" r="42" fill="#44A8CD"/>
<path fill-rule="evenodd" clip-rule="evenodd" d="M59.2192 17.74L60.4796 25.3022C60.6158 26.1194 60.0638 26.8922 59.2466 27.0284C58.4295 27.1646 57.6566 26.6126 57.5204 25.7954L57.0395 22.9098L45.1596 37.6033L38.23 32.0596L25.1088 46.461C24.5509 47.0734 23.6021 47.1175 22.9898 46.5596C22.3774 46.0016 22.3333 45.0529 22.8912 44.4405L37.9072 27.9595L44.7032 33.3963L54.546 21.2223L51.2571 21.5512C50.4328 21.6336 49.6977 21.0322 49.6153 20.2079C49.5329 19.3835 50.1343 18.6485 50.9586 18.5661L59.2192 17.74Z" fill="#F3F2FC"/>
<path fill-rule="evenodd" clip-rule="evenodd" d="M59.2192 36.9556L60.4796 44.5178C60.6158 45.3349 60.0638 46.1078 59.2466 46.244C58.4295 46.3802 57.6566 45.8281 57.5204 45.011L57.0395 42.1254L45.1596 56.8189L38.23 51.2752L25.1088 65.6766C24.5509 66.2889 23.6021 66.3331 22.9898 65.7751C22.3774 65.2172 22.3333 64.2685 22.8912 63.6561L37.9072 47.1751L44.7032 52.6118L54.546 40.4379L51.2571 40.7667C50.4328 40.8492 49.6977 40.2478 49.6153 39.4234C49.5329 38.5991 50.1343 37.8641 50.9586 37.7816L59.2192 36.9556Z" fill="#F3F2FC"/>
</svg>
