<svg width="84" height="85" viewBox="0 0 84 85" fill="none" xmlns="http://www.w3.org/2000/svg">
<circle cx="42" cy="42.3723" r="42" fill="#E06AC6"/>
<g clip-path="url(#clip0_28_506)">
<path fill-rule="evenodd" clip-rule="evenodd" d="M42.6251 63.3722C54.4302 63.3722 64.0002 53.8023 64.0002 41.9972C64.0002 30.192 54.4302 20.6221 42.6251 20.6221C30.82 20.6221 21.25 30.192 21.25 41.9972C21.25 53.8023 30.82 63.3722 42.6251 63.3722ZM42.6251 66.3722C56.0871 66.3722 67.0002 55.4591 67.0002 41.9972C67.0002 28.5352 56.0871 17.6221 42.6251 17.6221C29.1631 17.6221 18.25 28.5352 18.25 41.9972C18.25 55.4591 29.1631 66.3722 42.6251 66.3722Z" fill="white"/>
<path fill-rule="evenodd" clip-rule="evenodd" d="M40.2844 44.5399L40.2844 28.549C40.2844 27.7206 40.956 27.049 41.7844 27.049C42.6128 27.049 43.2844 27.7206 43.2844 28.549L43.2844 42.8168L52.6265 48.2663C53.342 48.6838 53.5838 49.6022 53.1663 50.3178C52.7489 51.0334 51.8304 51.2751 51.1149 50.8577L40.2844 44.5399Z" fill="white"/>
</g>
<defs>
<clipPath id="clip0_28_506">
<rect width="50" height="50" fill="white" transform="translate(17 17.3723)"/>
</clipPath>
</defs>
</svg>
