<svg width="59" height="72" viewBox="0 0 59 72" fill="none" xmlns="http://www.w3.org/2000/svg">
<path d="M58.4081 29.7517C58.4081 48.7329 29.4369 71.2105 29.4369 71.2105C29.4369 71.2105 0.465698 48.7329 0.465698 29.7517C0.465698 13.7514 13.4365 0.780518 29.4369 0.780518C45.4373 0.780518 58.4081 13.7514 58.4081 29.7517Z" fill="#615081"/>
<path fill-rule="evenodd" clip-rule="evenodd" d="M22.6889 22.9784V15.7656H22.2715C18.5046 15.7656 15.451 18.8193 15.451 22.5861V22.9784L22.6889 22.9784ZM22.6889 24.2775H15.451V37.1735C15.451 40.9403 18.5046 43.994 22.2715 43.994H35.8189L35.8189 37.0874H23.3385H22.6889V36.4378V24.2775ZM31.3247 24.2775L35.8189 34.0364L35.8189 24.2775H31.3247ZM33.2127 31.4829L35.1954 35.7882H24.4579L26.4972 31.4829H33.2127ZM32.6144 30.1838L29.9682 24.4377H29.8345L27.1126 30.1838H32.6144ZM28.4728 24.2775L23.9881 33.7453V24.2775H28.4728ZM37.118 35.7882L37.118 23.628V22.9784L36.4685 22.9784L23.9881 22.9784V15.7656H37.1833C40.9502 15.7656 44.0038 18.8193 44.0038 22.5861V35.7882H37.118ZM37.118 37.0874L37.118 43.994H37.1833C40.9502 43.994 44.0038 40.9403 44.0038 37.1735V37.0874H37.118Z" fill="white"/>
</svg>
