<svg width="84" height="85" viewBox="0 0 84 85" fill="none" xmlns="http://www.w3.org/2000/svg">
<circle cx="42" cy="42.3723" r="42" fill="#EEAF35"/>
<g clip-path="url(#clip0_255_137)">
<circle cx="46.9494" cy="25.8442" r="5.97191" stroke="white" stroke-width="3"/>
<path d="M45.882 65.8723C45.882 65.8723 54.8299 57.9292 51.7528 53.597C48.9742 49.685 39.4775 53.0633 39.4775 53.0633L44.8146 37.5858C44.8146 37.5858 51.4381 44.5075 55.4888 42.3891C58.7143 40.7023 59.7584 35.4509 59.7584 35.4509" stroke="#F3F2FC" stroke-width="3" stroke-linecap="round"/>
<path d="M26.2873 38.5443C26.0724 39.3443 26.5467 40.1672 27.3468 40.3821C28.1468 40.597 28.9696 40.1227 29.1846 39.3226L26.2873 38.5443ZM38.4553 35.5484L39.8735 36.037L40.8506 33.2006L39.4324 32.712L38.4553 35.5484ZM32.5393 33.5966L33.0536 35.0057L32.5393 33.5966ZM27.7359 38.9335C29.1846 39.3226 29.1844 39.3232 29.1843 39.3237C29.1843 39.3239 29.1841 39.3244 29.184 39.3247C29.1839 39.3253 29.1837 39.3259 29.1836 39.3264C29.1833 39.3274 29.1831 39.3282 29.1829 39.3288C29.1826 39.3299 29.1825 39.3301 29.1827 39.3295C29.1831 39.3281 29.1845 39.3233 29.1869 39.315C29.1918 39.2986 29.2009 39.2688 29.2145 39.2273C29.2418 39.1441 29.2869 39.0147 29.3527 38.8512C29.485 38.5225 29.6962 38.0669 30.0055 37.5765C30.629 36.5876 31.5978 35.537 33.0536 35.0057L32.025 32.1876C29.7448 33.0198 28.312 34.6376 27.4678 35.9763C27.0433 36.6496 26.7541 37.2726 26.5695 37.7314C26.4768 37.9618 26.4094 38.1535 26.3637 38.2929C26.3409 38.3626 26.3233 38.4196 26.3108 38.462C26.3045 38.4832 26.2994 38.5008 26.2955 38.5146C26.2936 38.5214 26.2919 38.5274 26.2906 38.5323C26.2899 38.5348 26.2893 38.5371 26.2887 38.5391C26.2885 38.5401 26.2882 38.541 26.288 38.5419C26.2878 38.5423 26.2877 38.5429 26.2876 38.5431C26.2875 38.5437 26.2873 38.5443 27.7359 38.9335ZM33.0536 35.0057C33.8254 34.724 35.0768 34.7804 36.3536 35.0159C36.9503 35.1259 37.4837 35.2614 37.8679 35.3697C38.0592 35.4235 38.2112 35.47 38.3132 35.5022C38.3641 35.5183 38.4023 35.5308 38.4265 35.5388C38.4386 35.5428 38.4471 35.5457 38.452 35.5473C38.4544 35.5481 38.4559 35.5487 38.4565 35.5488C38.4567 35.5489 38.4568 35.549 38.4566 35.5489C38.4565 35.5489 38.4563 35.5488 38.4561 35.5487C38.456 35.5487 38.4558 35.5486 38.4557 35.5486C38.4555 35.5485 38.4553 35.5484 38.9438 34.1302C39.4324 32.712 39.4321 32.7119 39.4318 32.7118C39.4317 32.7118 39.4314 32.7117 39.4312 32.7116C39.4307 32.7114 39.4302 32.7113 39.4296 32.7111C39.4284 32.7106 39.427 32.7102 39.4253 32.7096C39.4219 32.7084 39.4176 32.707 39.4123 32.7052C39.4017 32.7016 39.3872 32.6967 39.3691 32.6907C39.3328 32.6787 39.2818 32.6621 39.2175 32.6418C39.0889 32.6011 38.9064 32.5454 38.6814 32.482C38.2332 32.3558 37.6074 32.1965 36.8978 32.0656C35.5617 31.8192 33.6109 31.6087 32.025 32.1876L33.0536 35.0057Z" fill="#F3F2FC"/>
<path d="M39.4775 53.0633C39.4775 53.0633 36.3779 61.7781 31.4719 62.1362C27.4358 62.4309 24 56.2654 24 56.2654" stroke="#F3F2FC" stroke-width="3" stroke-linecap="round"/>
</g>
<defs>
<clipPath id="clip0_255_137">
<rect width="50" height="50" fill="white" transform="translate(17 17.3723)"/>
</clipPath>
</defs>
</svg>
