<svg width="84" height="85" viewBox="0 0 84 85" fill="none" xmlns="http://www.w3.org/2000/svg">
<circle cx="42" cy="42.3723" r="42" fill="#A077E4"/>
<g clip-path="url(#clip0_255_6)">
<path fill-rule="evenodd" clip-rule="evenodd" d="M64.3833 52.9848C64.8271 52.1059 64.3912 51.0588 63.4823 50.6804C62.5734 50.302 61.5366 50.7365 61.0818 51.6097C59.4648 54.7145 57.0855 57.3704 54.1554 59.3207C50.7291 61.6012 46.7036 62.8144 42.5878 62.807C38.472 62.7997 34.4508 61.572 31.0328 59.2792C28.1097 57.3185 25.7399 54.6541 24.134 51.5435C23.6824 50.6687 22.6472 50.2305 21.7369 50.6056C20.8267 50.9807 20.387 52.0263 20.8276 52.9067C22.7096 56.6671 25.5378 59.8864 29.0467 62.2401C33.0504 64.9256 37.7605 66.3637 42.5814 66.3723C47.4023 66.3809 52.1176 64.9598 56.1308 62.2886C59.6482 59.9475 62.4878 56.7384 64.3833 52.9848Z" fill="white"/>
<path fill-rule="evenodd" clip-rule="evenodd" d="M28 36.3723C27.1716 36.3723 26.5 35.7007 26.5 34.8723L26.5 26.3723C26.5 25.5439 27.1716 24.8723 28 24.8723C28.8284 24.8723 29.5 25.5439 29.5 26.3723L29.5 34.8723C29.5 35.7007 28.8284 36.3723 28 36.3723Z" fill="white"/>
<path fill-rule="evenodd" clip-rule="evenodd" d="M47.9967 32.1167L58.1502 25.1361C58.8329 24.6668 59.7667 24.8398 60.2361 25.5224C60.7054 26.2051 60.5325 27.1389 59.8498 27.6083L54.0033 31.6277L60.1387 34.515C60.8883 34.8677 61.21 35.7613 60.8572 36.5109C60.5045 37.2605 59.6109 37.5822 58.8613 37.2294L47.9967 32.1167Z" fill="white"/>
</g>
<defs>
<clipPath id="clip0_255_6">
<rect width="50" height="50" fill="white" transform="translate(17 17.3723)"/>
</clipPath>
</defs>
</svg>
