<svg width="479" height="382" viewBox="0 0 479 382" fill="none" xmlns="http://www.w3.org/2000/svg">
<path d="M7.31872 0.703722H14.4967V99.2249H7.31872V0.703722Z" fill="#473667"/>
<path d="M70.502 7.17797H35.0344V0.703722H113.148V7.17797H77.68V99.2249H70.502V7.17797Z" fill="#473667"/>
<path d="M127.42 0.703722H133.894L133.331 37.0158H127.983L127.42 0.703722Z" fill="#473667"/>
<path d="M190.239 99.9286C183.014 99.9286 176.118 98.7088 169.55 96.2692C163.076 93.7358 158.009 90.4987 154.349 86.5579L157.587 81.2096C161.058 84.8689 165.703 87.8715 171.52 90.2172C177.432 92.4691 183.624 93.5951 190.099 93.5951C199.482 93.5951 206.566 91.8123 211.351 88.2468C216.136 84.6813 218.529 80.0367 218.529 74.3131C218.529 69.9031 217.262 66.3845 214.729 63.7573C212.195 61.13 209.052 59.1127 205.299 57.7052C201.546 56.2978 196.479 54.8434 190.099 53.3422C182.874 51.5594 177.056 49.8236 172.646 48.1346C168.33 46.4457 164.624 43.8654 161.527 40.3937C158.525 36.8281 157.024 32.0897 157.024 26.1785C157.024 21.3932 158.29 17.0301 160.824 13.0892C163.357 9.05456 167.204 5.86436 172.365 3.51862C177.619 1.17287 184.14 0 191.928 0C197.37 0 202.719 0.797553 207.973 2.39266C213.228 3.98777 217.778 6.14585 221.625 8.86691L218.951 14.6374C215.01 11.9164 210.647 9.85211 205.862 8.44467C201.17 7.03723 196.526 6.3335 191.928 6.3335C182.827 6.3335 175.93 8.16318 171.239 11.8225C166.547 15.4819 164.202 20.2203 164.202 26.0377C164.202 30.4477 165.468 33.9663 168.002 36.5936C170.535 39.2208 173.678 41.2381 177.432 42.6456C181.185 44.053 186.298 45.5543 192.773 47.1494C199.998 48.9322 205.768 50.668 210.084 52.357C214.4 54.0459 218.06 56.6262 221.062 60.0979C224.159 63.4758 225.707 68.0734 225.707 73.8909C225.707 78.6762 224.393 83.0393 221.766 86.9801C219.233 90.921 215.292 94.0642 209.944 96.41C204.595 98.7557 198.027 99.9286 190.239 99.9286Z" fill="#473667"/>
<path d="M93.7358 141.704V240.225H70.7945L27.3044 187.727V240.225H0V141.704H22.9414L66.4314 194.201V141.704H93.7358Z" fill="#473667"/>
<path d="M165.89 242.195C155.475 242.195 146.092 239.99 137.742 235.58C129.485 231.17 122.963 225.071 118.178 217.284C113.487 209.496 111.141 200.723 111.141 190.964C111.141 181.206 113.487 172.433 118.178 164.645C122.963 156.857 129.485 150.758 137.742 146.348C146.092 141.938 155.475 139.733 165.89 139.733C176.306 139.733 185.642 141.938 193.899 146.348C202.249 150.758 208.771 156.857 213.462 164.645C218.247 172.433 220.64 181.206 220.64 190.964C220.64 200.723 218.247 209.496 213.462 217.284C208.771 225.071 202.249 231.17 193.899 235.58C185.642 239.99 176.306 242.195 165.89 242.195ZM165.89 219.113C170.863 219.113 175.367 217.94 179.402 215.595C183.437 213.249 186.627 209.965 188.973 205.742C191.318 201.426 192.491 196.5 192.491 190.964C192.491 185.428 191.318 180.549 188.973 176.327C186.627 172.011 183.437 168.68 179.402 166.334C175.367 163.988 170.863 162.815 165.89 162.815C160.917 162.815 156.414 163.988 152.379 166.334C148.344 168.68 145.154 172.011 142.808 176.327C140.463 180.549 139.29 185.428 139.29 190.964C139.29 196.5 140.463 201.426 142.808 205.742C145.154 209.965 148.344 213.249 152.379 215.595C156.414 217.94 160.917 219.113 165.89 219.113Z" fill="#473667"/>
<path d="M257.647 163.801H227.387V141.704H315.634V163.801H285.514V240.225H257.647V163.801Z" fill="#473667"/>
<path d="M100.492 381.225L100.351 296.919L59.1127 368.136H55.5941L14.3559 297.2V381.225H7.31872V282.704H13.3707L57.4238 358.846L101.477 282.704H107.388L107.529 381.225H100.492Z" fill="#473667"/>
<path d="M205.635 353.498H148.493L135.967 381.225H128.226L173.546 282.704H180.724L226.043 381.225H218.302L205.635 353.498ZM202.961 347.446L177.064 290.585L151.308 347.446H202.961Z" fill="#473667"/>
<path d="M315.742 332.387H322.638V369.262C318.322 373.39 313.067 376.533 306.875 378.691C300.776 380.85 294.302 381.929 287.452 381.929C277.694 381.929 268.874 379.771 260.992 375.454C253.204 371.138 247.058 365.18 242.554 357.58C238.144 349.98 235.939 341.441 235.939 331.964C235.939 322.487 238.144 313.949 242.554 306.349C247.058 298.749 253.204 292.79 260.992 288.474C268.874 284.158 277.741 282 287.593 282C294.818 282 301.433 283.173 307.438 285.519C313.537 287.771 318.744 291.101 323.06 295.511L318.556 300.297C314.428 296.168 309.783 293.213 304.623 291.43C299.556 289.553 293.926 288.615 287.733 288.615C279.289 288.615 271.642 290.492 264.792 294.245C258.036 297.998 252.735 303.206 248.888 309.867C245.041 316.436 243.117 323.801 243.117 331.964C243.117 340.034 245.041 347.399 248.888 354.061C252.829 360.629 258.177 365.837 264.933 369.684C271.689 373.437 279.289 375.314 287.733 375.314C298.993 375.314 308.329 372.311 315.742 366.306V332.387Z" fill="#473667"/>
<path d="M357.041 282.704H364.219V381.225H357.041V282.704Z" fill="#473667"/>
<path d="M443.025 381.929C433.361 381.929 424.635 379.771 416.847 375.454C409.153 371.138 403.054 365.18 398.55 357.58C394.14 349.98 391.935 341.441 391.935 331.964C391.935 322.487 394.14 313.949 398.55 306.349C403.054 298.749 409.153 292.79 416.847 288.474C424.635 284.158 433.361 282 443.025 282C450.156 282 456.724 283.173 462.729 285.519C468.734 287.771 473.848 291.148 478.071 295.652L473.567 300.297C465.685 292.509 455.598 288.615 443.307 288.615C435.05 288.615 427.543 290.492 420.788 294.245C414.032 297.998 408.73 303.206 404.883 309.867C401.036 316.436 399.113 323.801 399.113 331.964C399.113 340.127 401.036 347.54 404.883 354.202C408.73 360.77 414.032 365.931 420.788 369.684C427.543 373.437 435.05 375.314 443.307 375.314C455.505 375.314 465.591 371.373 473.567 363.491L478.071 368.136C473.848 372.639 468.688 376.064 462.589 378.41C456.584 380.756 450.062 381.929 443.025 381.929Z" fill="#473667"/>
</svg>
