<svg width="581" height="92" viewBox="0 0 581 92" fill="none" xmlns="http://www.w3.org/2000/svg">
<path d="M0 1.03969H3.90566V37.9851H0V1.03969Z" fill="#473667"/>
<path d="M24.1601 4.41756H11.1764V1.03969H41.0494V4.41756H28.0657V37.9851H24.1601V4.41756Z" fill="#473667"/>
<path d="M46.2271 1.03969H49.5522L49.2883 14.9734H46.491L46.2271 1.03969Z" fill="#473667"/>
<path d="M70.5134 38.3018C67.7689 38.3018 65.1299 37.862 62.5965 36.9823C60.0983 36.1027 58.1631 34.9415 56.7908 33.4989L58.3214 30.4905C59.6585 31.8275 61.4354 32.9183 63.6521 33.7628C65.8688 34.5721 68.1559 34.9767 70.5134 34.9767C73.8209 34.9767 76.3015 34.3785 77.9553 33.1822C79.609 31.9507 80.4359 30.3673 80.4359 28.4321C80.4359 26.9543 79.9785 25.7755 79.0636 24.8959C78.184 24.0162 77.0932 23.3477 75.7913 22.8903C74.4894 22.3977 72.6773 21.8699 70.3551 21.3069C67.5754 20.6032 65.3586 19.9346 63.7049 19.3013C62.0511 18.6328 60.6261 17.6299 59.4298 16.2929C58.2686 14.9558 57.6881 13.1437 57.6881 10.8566C57.6881 8.99175 58.1807 7.30282 59.1659 5.78982C60.1511 4.24163 61.6641 3.01011 63.7049 2.09528C65.7457 1.18044 68.2791 0.723016 71.3051 0.723016C73.4163 0.723016 75.4746 1.0221 77.4802 1.62026C79.521 2.18324 81.2803 2.97493 82.7582 3.99532L81.4387 7.1093C79.8905 6.0889 78.2368 5.3324 76.4774 4.83979C74.7181 4.312 72.994 4.04811 71.3051 4.04811C68.068 4.04811 65.6225 4.68145 63.9688 5.94815C62.3502 7.17967 61.5409 8.78064 61.5409 10.7511C61.5409 12.2289 61.9808 13.4252 62.8604 14.34C63.7753 15.2197 64.9012 15.9058 66.2383 16.3984C67.6105 16.8559 69.4402 17.3661 71.7273 17.929C74.4366 18.5976 76.6182 19.2661 78.2719 19.9346C79.9609 20.568 81.3859 21.5532 82.5471 22.8903C83.7082 24.1922 84.2888 25.9691 84.2888 28.221C84.2888 30.0858 83.7786 31.7924 82.7582 33.3405C81.773 34.8536 80.2424 36.0675 78.1664 36.9823C76.0904 37.862 73.5394 38.3018 70.5134 38.3018Z" fill="#473667"/>
<path d="M114.265 9.32602H102.917V1.03969H136.01V9.32602H124.715V37.9851H114.265V9.32602Z" fill="#473667"/>
<path d="M170.621 29.9099V37.9851H140.959V1.03969H169.935V9.1149H151.303V15.3428H167.718V23.1542H151.303V29.9099H170.621Z" fill="#473667"/>
<path d="M195.844 38.724C191.973 38.724 188.49 37.9147 185.393 36.2962C182.332 34.6424 179.922 32.3553 178.163 29.4349C176.403 26.5144 175.524 23.2069 175.524 19.5124C175.524 15.8179 176.403 12.5104 178.163 9.58992C179.922 6.66947 182.332 4.39996 185.393 2.7814C188.49 1.12765 191.973 0.300781 195.844 0.300781C199.222 0.300781 202.265 0.898946 204.975 2.09528C207.684 3.2916 209.936 5.01572 211.73 7.26763L205.08 13.2845C202.687 10.3992 199.785 8.95657 196.372 8.95657C194.366 8.95657 192.571 9.39639 190.988 10.276C189.44 11.1557 188.226 12.4048 187.346 14.0234C186.502 15.6067 186.08 17.4364 186.08 19.5124C186.08 21.5884 186.502 23.4357 187.346 25.0542C188.226 26.6376 189.44 27.8691 190.988 28.7488C192.571 29.6284 194.366 30.0682 196.372 30.0682C199.785 30.0682 202.687 28.6256 205.08 25.7404L211.73 31.7572C209.936 34.0091 207.684 35.7332 204.975 36.9295C202.265 38.1259 199.222 38.724 195.844 38.724Z" fill="#473667"/>
<path d="M252.596 1.03969V37.9851H242.146V23.5764H227.896V37.9851H217.445V1.03969H227.896V14.9206H242.146V1.03969H252.596Z" fill="#473667"/>
<path d="M296.174 1.03969V37.9851H287.571L271.262 18.2985V37.9851H261.023V1.03969H269.626L285.935 20.7263V1.03969H296.174Z" fill="#473667"/>
<path d="M323.232 38.724C319.326 38.724 315.808 37.8972 312.676 36.2434C309.58 34.5897 307.134 32.3026 305.34 29.3821C303.581 26.4617 302.701 23.1718 302.701 19.5124C302.701 15.853 303.581 12.5631 305.34 9.6427C307.134 6.72225 309.58 4.43515 312.676 2.7814C315.808 1.12765 319.326 0.300781 323.232 0.300781C327.138 0.300781 330.639 1.12765 333.735 2.7814C336.867 4.43515 339.312 6.72225 341.071 9.6427C342.866 12.5631 343.763 15.853 343.763 19.5124C343.763 23.1718 342.866 26.4617 341.071 29.3821C339.312 32.3026 336.867 34.5897 333.735 36.2434C330.639 37.8972 327.138 38.724 323.232 38.724ZM323.232 30.0682C325.097 30.0682 326.786 29.6284 328.299 28.7488C329.812 27.8691 331.008 26.6376 331.888 25.0542C332.768 23.4357 333.207 21.5884 333.207 19.5124C333.207 17.4364 332.768 15.6067 331.888 14.0234C331.008 12.4048 329.812 11.1557 328.299 10.276C326.786 9.39639 325.097 8.95657 323.232 8.95657C321.367 8.95657 319.678 9.39639 318.165 10.276C316.652 11.1557 315.456 12.4048 314.576 14.0234C313.697 15.6067 313.257 17.4364 313.257 19.5124C313.257 21.5884 313.697 23.4357 314.576 25.0542C315.456 26.6376 316.652 27.8691 318.165 28.7488C319.678 29.6284 321.367 30.0682 323.232 30.0682Z" fill="#473667"/>
<path d="M350.292 1.03969H360.742V29.6988H378.371V37.9851H350.292V1.03969Z" fill="#473667"/>
<path d="M401.626 38.724C397.72 38.724 394.201 37.8972 391.07 36.2434C387.973 34.5897 385.528 32.3026 383.734 29.3821C381.974 26.4617 381.095 23.1718 381.095 19.5124C381.095 15.853 381.974 12.5631 383.734 9.6427C385.528 6.72225 387.973 4.43515 391.07 2.7814C394.201 1.12765 397.72 0.300781 401.626 0.300781C405.531 0.300781 409.032 1.12765 412.129 2.7814C415.26 4.43515 417.706 6.72225 419.465 9.6427C421.26 12.5631 422.157 15.853 422.157 19.5124C422.157 23.1718 421.26 26.4617 419.465 29.3821C417.706 32.3026 415.26 34.5897 412.129 36.2434C409.032 37.8972 405.531 38.724 401.626 38.724ZM401.626 30.0682C403.491 30.0682 405.179 29.6284 406.692 28.7488C408.205 27.8691 409.402 26.6376 410.281 25.0542C411.161 23.4357 411.601 21.5884 411.601 19.5124C411.601 17.4364 411.161 15.6067 410.281 14.0234C409.402 12.4048 408.205 11.1557 406.692 10.276C405.179 9.39639 403.491 8.95657 401.626 8.95657C399.761 8.95657 398.072 9.39639 396.559 10.276C395.046 11.1557 393.85 12.4048 392.97 14.0234C392.09 15.6067 391.65 17.4364 391.65 19.5124C391.65 21.5884 392.09 23.4357 392.97 25.0542C393.85 26.6376 395.046 27.8691 396.559 28.7488C398.072 29.6284 399.761 30.0682 401.626 30.0682Z" fill="#473667"/>
<path d="M453.439 18.7207H462.676V34.0267C460.564 35.5397 458.137 36.7008 455.392 37.5101C452.647 38.3194 449.903 38.724 447.158 38.724C443.288 38.724 439.805 37.9147 436.708 36.2962C433.612 34.6424 431.184 32.3553 429.425 29.4349C427.665 26.5144 426.786 23.2069 426.786 19.5124C426.786 15.8179 427.665 12.5104 429.425 9.58992C431.184 6.66947 433.629 4.39996 436.761 2.7814C439.892 1.12765 443.429 0.300781 447.37 0.300781C450.818 0.300781 453.914 0.881352 456.659 2.04249C459.403 3.20364 461.69 4.87498 463.52 7.05652L456.87 13.0733C454.372 10.3288 451.381 8.95657 447.897 8.95657C444.731 8.95657 442.18 9.92419 440.244 11.8594C438.309 13.7595 437.342 16.3105 437.342 19.5124C437.342 21.5532 437.781 23.3829 438.661 25.0014C439.541 26.5848 440.772 27.8339 442.356 28.7488C443.939 29.6284 445.751 30.0682 447.792 30.0682C449.797 30.0682 451.68 29.6636 453.439 28.8543V18.7207Z" fill="#473667"/>
<path d="M490.149 24.7375V37.9851H479.698V24.5792L465.606 1.03969H476.637L485.399 15.7123L494.16 1.03969H504.294L490.149 24.7375Z" fill="#473667"/>
<path d="M3.90566 57.4176V71.9318H23.0117V75.3097H3.90566V90.9851H0V54.0397H25.334V57.4176H3.90566Z" fill="#473667"/>
<path d="M50.1415 91.3018C46.4821 91.3018 43.157 90.4925 40.1662 88.874C37.2106 87.2202 34.8883 84.9683 33.1993 82.1182C31.5456 79.2681 30.7187 76.0662 30.7187 72.5124C30.7187 68.9586 31.5456 65.7567 33.1993 62.9066C34.8883 60.0565 37.2106 57.8222 40.1662 56.2036C43.157 54.5499 46.4821 53.723 50.1415 53.723C53.8008 53.723 57.0907 54.5323 60.0112 56.1509C62.9668 57.7694 65.2891 60.0213 66.978 62.9066C68.667 65.7567 69.5114 68.9586 69.5114 72.5124C69.5114 76.0662 68.667 79.2857 66.978 82.171C65.2891 85.0211 62.9668 87.2554 60.0112 88.874C57.0907 90.4925 53.8008 91.3018 50.1415 91.3018ZM50.1415 87.8184C53.0619 87.8184 55.7009 87.1674 58.0583 85.8655C60.4158 84.5285 62.2631 82.6988 63.6002 80.3765C64.9372 78.019 65.6058 75.3977 65.6058 72.5124C65.6058 69.6271 64.9372 67.0234 63.6002 64.7011C62.2631 62.3436 60.4158 60.5139 58.0583 59.212C55.7009 57.875 53.0619 57.2064 50.1415 57.2064C47.221 57.2064 44.5645 57.875 42.1718 59.212C39.8143 60.5139 37.9495 62.3436 36.5772 64.7011C35.2401 67.0234 34.5716 69.6271 34.5716 72.5124C34.5716 75.3977 35.2401 78.019 36.5772 80.3765C37.9495 82.6988 39.8143 84.5285 42.1718 85.8655C44.5645 87.1674 47.221 87.8184 50.1415 87.8184Z" fill="#473667"/>
<path d="M104.55 90.9851L96.1051 79.1098C95.1551 79.2154 94.1699 79.2681 93.1495 79.2681H83.227V90.9851H79.3213V54.0397H93.1495C97.8644 54.0397 101.559 55.1656 104.233 57.4176C106.907 59.6695 108.244 62.7659 108.244 66.7067C108.244 69.592 107.505 72.0374 106.028 74.043C104.585 76.0134 102.509 77.4385 99.7997 78.3181L108.825 90.9851H104.55ZM93.0439 75.9431C96.7033 75.9431 99.5006 75.1338 101.436 73.5152C103.371 71.8967 104.339 69.6271 104.339 66.7067C104.339 63.7159 103.371 61.4288 101.436 59.8454C99.5006 58.2268 96.7033 57.4176 93.0439 57.4176H83.227V75.9431H93.0439Z" fill="#473667"/>
<path d="M146.054 78.2126V90.9851H142.201V78.2126L127.423 54.0397H131.593L144.26 74.7819L156.927 54.0397H160.832L146.054 78.2126Z" fill="#473667"/>
<path d="M182.498 91.3018C178.838 91.3018 175.513 90.4925 172.522 88.874C169.567 87.2202 167.244 84.9683 165.556 82.1182C163.902 79.2681 163.075 76.0662 163.075 72.5124C163.075 68.9586 163.902 65.7567 165.556 62.9066C167.244 60.0565 169.567 57.8222 172.522 56.2036C175.513 54.5499 178.838 53.723 182.498 53.723C186.157 53.723 189.447 54.5323 192.367 56.1509C195.323 57.7694 197.645 60.0213 199.334 62.9066C201.023 65.7567 201.868 68.9586 201.868 72.5124C201.868 76.0662 201.023 79.2857 199.334 82.171C197.645 85.0211 195.323 87.2554 192.367 88.874C189.447 90.4925 186.157 91.3018 182.498 91.3018ZM182.498 87.8184C185.418 87.8184 188.057 87.1674 190.415 85.8655C192.772 84.5285 194.619 82.6988 195.956 80.3765C197.293 78.019 197.962 75.3977 197.962 72.5124C197.962 69.6271 197.293 67.0234 195.956 64.7011C194.619 62.3436 192.772 60.5139 190.415 59.212C188.057 57.875 185.418 57.2064 182.498 57.2064C179.577 57.2064 176.921 57.875 174.528 59.212C172.171 60.5139 170.306 62.3436 168.933 64.7011C167.596 67.0234 166.928 69.6271 166.928 72.5124C166.928 75.3977 167.596 78.019 168.933 80.3765C170.306 82.6988 172.171 84.5285 174.528 85.8655C176.921 87.1674 179.577 87.8184 182.498 87.8184Z" fill="#473667"/>
<path d="M226.561 91.3018C221.776 91.3018 218.046 89.9295 215.372 87.185C212.698 84.4405 211.361 80.4469 211.361 75.2041V54.0397H215.266V75.0458C215.266 79.3385 216.234 82.5405 218.169 84.6516C220.105 86.7628 222.902 87.8184 226.561 87.8184C230.256 87.8184 233.071 86.7628 235.006 84.6516C236.941 82.5405 237.909 79.3385 237.909 75.0458V54.0397H241.709V75.2041C241.709 80.4469 240.372 84.4405 237.698 87.185C235.059 89.9295 231.347 91.3018 226.561 91.3018Z" fill="#473667"/>
<path d="M279.762 90.9851L271.318 79.1098C270.368 79.2154 269.382 79.2681 268.362 79.2681H258.439V90.9851H254.534V54.0397H268.362C273.077 54.0397 276.771 55.1656 279.446 57.4176C282.12 59.6695 283.457 62.7659 283.457 66.7067C283.457 69.592 282.718 72.0374 281.24 74.043C279.797 76.0134 277.721 77.4385 275.012 78.3181L284.037 90.9851H279.762ZM268.256 75.9431C271.916 75.9431 274.713 75.1338 276.648 73.5152C278.584 71.8967 279.551 69.6271 279.551 66.7067C279.551 63.7159 278.584 61.4288 276.648 59.8454C274.713 58.2268 271.916 57.4176 268.256 57.4176H258.439V75.9431H268.256Z" fill="#473667"/>
<path d="M331.875 71.9318C334.303 72.4596 336.168 73.5152 337.47 75.0986C338.807 76.6468 339.475 78.6524 339.475 81.1154C339.475 84.2822 338.297 86.7276 335.939 88.4517C333.617 90.1407 330.169 90.9851 325.594 90.9851H308.599V54.0397H324.539C328.656 54.0397 331.84 54.8666 334.092 56.5203C336.379 58.1741 337.522 60.5139 337.522 63.5399C337.522 65.5807 337.012 67.3225 335.992 68.7651C335.007 70.1725 333.634 71.2281 331.875 71.9318ZM312.505 57.2592V70.6651H324.275C327.266 70.6651 329.57 70.1022 331.189 68.9762C332.808 67.8151 333.617 66.1437 333.617 63.9622C333.617 61.7806 332.808 60.1269 331.189 59.0009C329.57 57.8398 327.266 57.2592 324.275 57.2592H312.505ZM325.542 87.7656C328.849 87.7656 331.347 87.2026 333.036 86.0767C334.725 84.9507 335.57 83.1914 335.57 80.7987C335.57 76.1894 332.227 73.8847 325.542 73.8847H312.505V87.7656H325.542Z" fill="#473667"/>
<path d="M364.329 91.3018C359.544 91.3018 355.814 89.9295 353.14 87.185C350.466 84.4405 349.129 80.4469 349.129 75.2041V54.0397H353.035V75.0458C353.035 79.3385 354.002 82.5405 355.937 84.6516C357.873 86.7628 360.67 87.8184 364.329 87.8184C368.024 87.8184 370.839 86.7628 372.774 84.6516C374.709 82.5405 375.677 79.3385 375.677 75.0458V54.0397H379.477V75.2041C379.477 80.4469 378.14 84.4405 375.466 87.185C372.827 89.9295 369.115 91.3018 364.329 91.3018Z" fill="#473667"/>
<path d="M402.488 91.3018C399.744 91.3018 397.105 90.862 394.571 89.9823C392.073 89.1027 390.138 87.9415 388.766 86.4989L390.296 83.4905C391.633 84.8276 393.41 85.9183 395.627 86.7628C397.844 87.5721 400.131 87.9767 402.488 87.9767C405.796 87.9767 408.276 87.3785 409.93 86.1822C411.584 84.9507 412.411 83.3673 412.411 81.4321C412.411 79.9543 411.953 78.7755 411.039 77.8959C410.159 77.0162 409.068 76.3477 407.766 75.8903C406.464 75.3977 404.652 74.8699 402.33 74.3069C399.55 73.6032 397.333 72.9346 395.68 72.3013C394.026 71.6328 392.601 70.63 391.405 69.2929C390.243 67.9558 389.663 66.1437 389.663 63.8566C389.663 61.9918 390.156 60.3028 391.141 58.7898C392.126 57.2416 393.639 56.0101 395.68 55.0953C397.721 54.1804 400.254 53.723 403.28 53.723C405.391 53.723 407.45 54.0221 409.455 54.6203C411.496 55.1832 413.255 55.9749 414.733 56.9953L413.414 60.1093C411.865 59.0889 410.212 58.3324 408.452 57.8398C406.693 57.312 404.969 57.0481 403.28 57.0481C400.043 57.0481 397.597 57.6815 395.944 58.9482C394.325 60.1797 393.516 61.7806 393.516 63.7511C393.516 65.2289 393.956 66.4252 394.835 67.34C395.75 68.2197 396.876 68.9058 398.213 69.3984C399.585 69.8559 401.415 70.3661 403.702 70.929C406.412 71.5976 408.593 72.2661 410.247 72.9346C411.936 73.568 413.361 74.5532 414.522 75.8903C415.683 77.1922 416.264 78.9691 416.264 81.221C416.264 83.0858 415.753 84.7924 414.733 86.3406C413.748 87.8536 412.217 89.0675 410.141 89.9823C408.065 90.862 405.514 91.3018 402.488 91.3018Z" fill="#473667"/>
<path d="M425.829 54.0397H429.735V90.9851H425.829V54.0397Z" fill="#473667"/>
<path d="M473.687 54.0397V90.9851H470.467L446.717 61.0065V90.9851H442.811V54.0397H446.031L469.834 84.0183V54.0397H473.687Z" fill="#473667"/>
<path d="M512.927 87.6073V90.9851H486.801V54.0397H512.135V57.4176H490.707V70.5596H509.813V73.8847H490.707V87.6073H512.927Z" fill="#473667"/>
<path d="M533.35 91.3018C530.605 91.3018 527.966 90.862 525.433 89.9823C522.935 89.1027 520.999 87.9415 519.627 86.4989L521.158 83.4905C522.495 84.8276 524.272 85.9183 526.488 86.7628C528.705 87.5721 530.992 87.9767 533.35 87.9767C536.657 87.9767 539.138 87.3785 540.792 86.1822C542.445 84.9507 543.272 83.3673 543.272 81.4321C543.272 79.9543 542.815 78.7755 541.9 77.8959C541.02 77.0162 539.93 76.3477 538.628 75.8903C537.326 75.3977 535.514 74.8699 533.191 74.3069C530.412 73.6032 528.195 72.9346 526.541 72.3013C524.887 71.6328 523.462 70.63 522.266 69.2929C521.105 67.9558 520.524 66.1437 520.524 63.8566C520.524 61.9918 521.017 60.3028 522.002 58.7898C522.987 57.2416 524.5 56.0101 526.541 55.0953C528.582 54.1804 531.115 53.723 534.141 53.723C536.253 53.723 538.311 54.0221 540.317 54.6203C542.357 55.1832 544.117 55.9749 545.594 56.9953L544.275 60.1093C542.727 59.0889 541.073 58.3324 539.314 57.8398C537.554 57.312 535.83 57.0481 534.141 57.0481C530.904 57.0481 528.459 57.6815 526.805 58.9482C525.186 60.1797 524.377 61.7806 524.377 63.7511C524.377 65.2289 524.817 66.4252 525.697 67.34C526.612 68.2197 527.737 68.9058 529.075 69.3984C530.447 69.8559 532.276 70.3661 534.564 70.929C537.273 71.5976 539.454 72.2661 541.108 72.9346C542.797 73.568 544.222 74.5532 545.383 75.8903C546.544 77.1922 547.125 78.9691 547.125 81.221C547.125 83.0858 546.615 84.7924 545.594 86.3406C544.609 87.8536 543.079 89.0675 541.003 89.9823C538.927 90.862 536.376 91.3018 533.35 91.3018Z" fill="#473667"/>
<path d="M566.877 91.3018C564.132 91.3018 561.493 90.862 558.96 89.9823C556.462 89.1027 554.527 87.9415 553.154 86.4989L554.685 83.4905C556.022 84.8276 557.799 85.9183 560.016 86.7628C562.232 87.5721 564.519 87.9767 566.877 87.9767C570.184 87.9767 572.665 87.3785 574.319 86.1822C575.972 84.9507 576.799 83.3673 576.799 81.4321C576.799 79.9543 576.342 78.7755 575.427 77.8959C574.547 77.0162 573.457 76.3477 572.155 75.8903C570.853 75.3977 569.041 74.8699 566.719 74.3069C563.939 73.6032 561.722 72.9346 560.068 72.3013C558.415 71.6328 556.99 70.63 555.793 69.2929C554.632 67.9558 554.052 66.1437 554.052 63.8566C554.052 61.9918 554.544 60.3028 555.529 58.7898C556.515 57.2416 558.028 56.0101 560.068 55.0953C562.109 54.1804 564.643 53.723 567.669 53.723C569.78 53.723 571.838 54.0221 573.844 54.6203C575.884 55.1832 577.644 55.9749 579.122 56.9953L577.802 60.1093C576.254 59.0889 574.6 58.3324 572.841 57.8398C571.082 57.312 569.357 57.0481 567.669 57.0481C564.431 57.0481 561.986 57.6815 560.332 58.9482C558.714 60.1797 557.904 61.7806 557.904 63.7511C557.904 65.2289 558.344 66.4252 559.224 67.34C560.139 68.2197 561.265 68.9058 562.602 69.3984C563.974 69.8559 565.804 70.3661 568.091 70.929C570.8 71.5976 572.982 72.2661 574.635 72.9346C576.324 73.568 577.749 74.5532 578.911 75.8903C580.072 77.1922 580.652 78.9691 580.652 81.221C580.652 83.0858 580.142 84.7924 579.122 86.3406C578.136 87.8536 576.606 89.0675 574.53 89.9823C572.454 90.862 569.903 91.3018 566.877 91.3018Z" fill="#473667"/>
</svg>
