<svg width="190" height="29" viewBox="0 0 190 29" fill="none" xmlns="http://www.w3.org/2000/svg">
<path d="M39.3143 21.9597H40.2566V28.5557H39.3143V21.9597ZM51.9274 22.7795H49.6659V21.9597H55.1217V22.7795H52.8603V28.5557H51.9274V22.7795ZM78.4004 28.631C77.7408 28.631 77.144 28.4866 76.6101 28.1976C76.0824 27.9024 75.6678 27.5003 75.3663 26.9915C75.0648 26.4764 74.914 25.8984 74.914 25.2577C74.914 24.6169 75.0648 24.0422 75.3663 23.5333C75.6678 23.0182 76.0856 22.6162 76.6195 22.3272C77.1535 22.032 77.7502 21.8843 78.4098 21.8843C78.925 21.8843 79.3961 21.9723 79.8233 22.1482C80.2504 22.3178 80.6148 22.5722 80.9163 22.9114L80.3038 23.5051C79.8076 22.9837 79.1888 22.723 78.4475 22.723C77.9575 22.723 77.5147 22.8329 77.1189 23.0528C76.7232 23.2726 76.4122 23.5773 76.1861 23.9668C75.9662 24.35 75.8563 24.7803 75.8563 25.2577C75.8563 25.7351 75.9662 26.1686 76.1861 26.558C76.4122 26.9412 76.7232 27.2428 77.1189 27.4626C77.5147 27.6825 77.9575 27.7924 78.4475 27.7924C79.1825 27.7924 79.8013 27.5286 80.3038 27.0009L80.9163 27.5945C80.6148 27.9338 80.2473 28.1913 79.8138 28.3672C79.3867 28.5431 78.9155 28.631 78.4004 28.631ZM93.4864 28.631C92.8205 28.631 92.2206 28.4866 91.6866 28.1976C91.1527 27.9024 90.7318 27.4972 90.424 26.9821C90.1224 26.4669 89.9717 25.8922 89.9717 25.2577C89.9717 24.6232 90.1224 24.0484 90.424 23.5333C90.7318 23.0182 91.1527 22.6162 91.6866 22.3272C92.2206 22.032 92.8205 21.8843 93.4864 21.8843C94.146 21.8843 94.7427 22.032 95.2767 22.3272C95.8107 22.6162 96.2284 23.0182 96.5299 23.5333C96.8315 24.0422 96.9822 24.6169 96.9822 25.2577C96.9822 25.8984 96.8315 26.4764 96.5299 26.9915C96.2284 27.5003 95.8107 27.9024 95.2767 28.1976C94.7427 28.4866 94.146 28.631 93.4864 28.631ZM93.4864 27.7924C93.9701 27.7924 94.4035 27.6825 94.7867 27.4626C95.1762 27.2428 95.4809 26.9412 95.7007 26.558C95.9269 26.1686 96.0399 25.7351 96.0399 25.2577C96.0399 24.7803 95.9269 24.35 95.7007 23.9668C95.4809 23.5773 95.1762 23.2726 94.7867 23.0528C94.4035 22.8329 93.9701 22.723 93.4864 22.723C93.0027 22.723 92.5629 22.8329 92.1672 23.0528C91.7777 23.2726 91.4699 23.5773 91.2437 23.9668C91.0239 24.35 90.9139 24.7803 90.9139 25.2577C90.9139 25.7351 91.0239 26.1686 91.2437 26.558C91.4699 26.9412 91.7777 27.2428 92.1672 27.4626C92.5629 27.6825 93.0027 27.7924 93.4864 27.7924ZM112.924 28.5557L112.915 23.75L110.531 27.7547H110.097L107.713 23.7783V28.5557H106.809V21.9597H107.581L110.333 26.5957L113.047 21.9597H113.819L113.829 28.5557H112.924ZM126.767 21.9597C127.621 21.9597 128.293 22.1639 128.783 22.5722C129.273 22.9805 129.518 23.5427 129.518 24.2589C129.518 24.975 129.273 25.5372 128.783 25.9456C128.293 26.3539 127.621 26.558 126.767 26.558H125.137V28.5557H124.194V21.9597H126.767ZM126.739 25.7383C127.335 25.7383 127.791 25.6126 128.105 25.3613C128.419 25.1038 128.576 24.7363 128.576 24.2589C128.576 23.7815 128.419 23.4171 128.105 23.1658C127.791 22.9083 127.335 22.7795 126.739 22.7795H125.137V25.7383H126.739ZM143.16 26.9067H139.655L138.929 28.5557H137.959L140.946 21.9597H141.879L144.875 28.5557H143.886L143.16 26.9067ZM142.83 26.1529L141.408 22.9208L139.985 26.1529H142.83ZM159.918 21.9597V28.5557H159.145L155.188 23.637V28.5557H154.245V21.9597H155.018L158.976 26.8784V21.9597H159.918ZM172.804 26.2754V28.5557H171.871V26.2565L169.251 21.9597H170.26L172.37 25.4367L174.491 21.9597H175.423L172.804 26.2754Z" fill="#211041"/>
<path d="M190 8.11639H186.656V11.3836H184.177V8.11639H180.852V5.77165H184.177V2.50439H186.656V5.77165H190V8.11639Z" fill="#211041"/>
<path fill-rule="evenodd" clip-rule="evenodd" d="M7.24605 7.61362V0.393066H6.82051C3.05365 0.393066 0 3.44672 0 7.21358V7.61362H7.24605ZM7.24605 8.91277L0 8.91276V21.829C0 25.5958 3.05365 28.6495 6.82052 28.6495H20.3891L20.3891 21.7353H7.89563H7.24605V21.0857V8.91277ZM15.8888 8.91277L20.3891 18.6849L20.3892 8.91277H15.8888ZM17.7801 16.1253L19.7654 20.4362H9.01513L11.0571 16.1253H17.7801ZM17.1818 14.8262L14.5323 9.07298H14.3977L11.6725 14.8262H17.1818ZM13.0361 8.91277L8.5452 18.3935V8.91277H13.0361ZM21.6883 20.4362L21.6883 8.26319V7.61362H21.0387H8.5452V0.393066H21.7607C25.5275 0.393066 28.5812 3.44672 28.5812 7.21358V20.4362H21.6883ZM21.6883 21.7353L21.6883 28.6495H21.7607C25.5276 28.6495 28.5812 25.5958 28.5812 21.829V21.7353H21.6883Z" fill="#211041"/>
<path fill-rule="evenodd" clip-rule="evenodd" d="M109.747 3.11765H113.907V14.0341H117.02V3.11765H121.326V0.580727H111.268L109.747 3.11765ZM133.17 13.3807C134.285 13.9701 135.528 14.2648 136.899 14.2648C138.065 14.2648 139.122 14.0598 140.07 13.6497C141.018 13.2397 141.812 12.6439 142.453 11.8624L140.454 10.0173C139.544 11.0808 138.417 11.6125 137.072 11.6125C136.239 11.6125 135.496 11.4331 134.842 11.0744C134.189 10.7028 133.676 10.1903 133.305 9.53685C132.946 8.8834 132.767 8.14026 132.767 7.30743C132.767 6.4746 132.946 5.73146 133.305 5.07801C133.676 4.42456 134.189 3.91845 134.842 3.55969C135.496 3.18812 136.239 3.00234 137.072 3.00234C138.417 3.00234 139.544 3.52766 140.454 4.57831L142.453 2.73327C141.812 1.96451 141.018 1.37512 140.07 0.96511C139.134 0.555102 138.084 0.350098 136.918 0.350098C135.534 0.350098 134.285 0.651198 133.17 1.2534C132.068 1.84278 131.197 2.66921 130.556 3.73267C129.928 4.78331 129.615 5.9749 129.615 7.30743C129.615 8.63995 129.928 9.83795 130.556 10.9014C131.197 11.9521 132.068 12.7785 133.17 13.3807ZM42.946 11.1513H49.1922L50.3838 14.0341H53.6511L47.6355 0.580727H44.5604L38.564 14.0341H41.7544L42.946 11.1513ZM46.0787 3.63657L48.212 8.7873H43.9454L46.0787 3.63657ZM67.9621 14.0341V0.580727H64.8871V8.74886L58.1988 0.580727H55.6234V14.0341H58.6985V5.86599L65.406 14.0341H67.9621ZM80.5817 11.1513H74.3355L73.1439 14.0341H69.9535L75.9499 0.580727H79.025L85.0406 14.0341H81.7733L80.5817 11.1513ZM79.6016 8.7873L77.4682 3.63657L75.3349 8.7873H79.6016ZM90.1264 0.580727H87.0129V14.0341H96.8724V11.4972H90.1264V0.580727ZM104.257 9.26778V14.0341H101.144V9.22934L95.9354 0.580727H99.2411L102.835 6.55788L106.429 0.580727H109.485L104.257 9.26778ZM123.577 0.580727H126.691V14.0341H123.577V0.580727ZM150.997 14.2648C149.075 14.2648 147.576 13.733 146.499 12.6696C145.436 11.6061 144.904 10.0878 144.904 8.11463V0.580727H148.018V7.99932C148.018 10.4081 149.017 11.6125 151.016 11.6125C151.99 11.6125 152.733 11.3242 153.245 10.7477C153.758 10.1583 154.014 9.24215 154.014 7.99932V0.580727H157.089V8.11463C157.089 10.0878 156.551 11.6061 155.475 12.6696C154.411 13.733 152.919 14.2648 150.997 14.2648ZM172.966 5.96209L172.985 14.0341H175.906L175.868 0.580727H173.312L168.353 8.94105L163.318 0.580727H160.742V14.0341H163.664V6.13506L167.604 12.6119H169.007L172.966 5.96209Z" fill="#211041"/>
</svg>
